<svg xmlns="http://www.w3.org/2000/svg" width="1120" height="330" viewBox="0 0 1120 330" fill="none">
  <title>Grades Education BTS logo</title>
  <desc>Transparent-background white logo with a three-dot motif, the Grades Education wordmark, and a clear BTS badge for the BTS site.</desc>

  <g fill="#FFFFFF">
    <circle cx="36" cy="196" r="11"/>
    <circle cx="78" cy="160" r="11"/>
    <circle cx="118" cy="126" r="11"/>

    <rect x="149" y="94" width="6" height="118" rx="3"/>

    <path d="M212.2 188.76Q206.044 188.76 200.686 186.442Q195.328 184.124 191.338 179.982Q187.348 175.84 185.106 170.292Q182.864 164.744 182.864 158.284Q182.864 151.9 185.106 146.39Q187.348 140.88 191.338 136.738Q195.328 132.596 200.648 130.24Q205.968 127.884 212.2 127.884Q218.052 127.884 222.269 129.404Q226.488 130.924 230.744 134.420Q231.352 134.876 231.694 135.37Q232.036 135.864 232.15 136.358Q232.264 136.852 232.264 137.536Q232.264 138.980 231.238 139.968Q230.212 140.956 228.73 141.032Q227.248 141.108 225.956 140.044Q223.144 137.612 220.142 136.32Q217.14 135.028 212.2 135.028Q207.716 135.028 203.764 136.851Q199.812 138.676 196.81 141.868Q193.808 145.06 192.136 149.278Q190.464 153.496 190.464 158.284Q190.464 163.148 192.136 167.365Q193.808 171.584 196.81 174.776Q199.812 177.968 203.764 179.754Q207.716 181.54 212.2 181.54Q216.076 181.54 219.534 180.209Q222.992 178.88 226.184 176.524Q227.552 175.536 228.882 175.65Q230.212 175.764 231.124 176.714Q232.036 177.664 232.036 179.336Q232.036 180.096 231.769 180.817Q231.504 181.54 230.82 182.148Q226.792 185.492 222.079 187.125Q217.368 188.76 212.2 188.76ZM232.036 179.336 224.436 177.816V164.212H213.948Q212.276 164.212 211.136 163.224Q209.996 162.236 209.996 160.716Q209.996 159.196 211.136 158.208Q212.276 157.22 213.948 157.22H228.16Q229.908 157.22 230.972 158.322Q232.036 159.424 232.036 161.172ZM247.564 162.008Q247.564 157.448 249.805 153.838Q252.048 150.228 255.848 148.100Q259.648 145.972 264.207 145.972Q268.768 145.972 271.01 147.454Q273.252 148.936 272.72 150.988Q272.492 152.052 271.846 152.622Q271.2 153.192 270.364 153.344Q269.528 153.496 268.54 153.268Q263.676 152.28 259.8 153.115Q255.924 153.952 253.682 156.232Q251.44 158.512 251.44 162.008ZM247.64 188Q245.816 188 244.828 187.05Q243.84 186.1 243.84 184.2V150.228Q243.84 148.404 244.828 147.416Q245.816 146.428 247.64 146.428Q249.54 146.428 250.49 147.378Q251.44 148.328 251.44 150.228V184.2Q251.44 186.024 250.49 187.012Q249.54 188 247.64 188ZM298.168 188.304Q292.619 188.304 288.223 185.543Q283.828 182.783 281.270 178.019Q278.712 173.256 278.712 167.273Q278.712 161.214 281.486 156.443Q284.26 151.672 289.001 148.898Q293.742 146.124 299.687 146.124Q305.632 146.124 310.336 148.898Q315.04 151.672 317.814 156.459Q320.588 161.248 320.588 167.252H317.624Q317.624 173.219 315.068 177.985Q312.512 182.750 308.124 185.527Q303.737 188.304 298.168 188.304ZM299.688 181.464Q303.564 181.464 306.604 179.602Q309.644 177.74 311.392 174.501Q313.14 171.262 313.14 167.239Q313.14 163.148 311.392 159.918Q309.644 156.688 306.605 154.826Q303.567 152.964 299.694 152.964Q295.888 152.964 292.809 154.826Q289.731 156.688 287.946 159.907Q286.16 163.127 286.16 167.238Q286.16 171.28 287.946 174.51Q289.731 177.74 292.805 179.602Q295.879 181.464 299.688 181.464ZM316.724 188.076Q315.04 188.076 313.938 186.974Q312.836 185.872 312.836 184.2V172.572L314.28 164.516L320.588 167.252V184.2Q320.588 185.872 319.498 186.974Q318.408 188.076 316.724 188.076ZM350.688 188.304Q344.76 188.304 340.01 185.53Q335.26 182.756 332.486 177.968Q329.712 173.18 329.712 167.176Q329.712 161.172 332.258 156.422Q334.804 151.672 339.212 148.898Q343.62 146.124 349.168 146.124Q353.652 146.124 357.452 147.986Q361.252 149.848 363.836 153.04V132.52Q363.836 130.772 364.938 129.708Q366.04 128.644 367.712 128.644Q369.46 128.644 370.524 129.708Q371.588 130.772 371.588 132.52V167.176Q371.588 173.18 368.814 177.968Q366.04 182.756 361.328 185.53Q356.616 188.304 350.688 188.304ZM350.688 181.464Q354.564 181.464 357.604 179.602Q360.644 177.74 362.392 174.472Q364.14 171.204 364.14 167.176Q364.14 163.072 362.392 159.88Q360.644 156.688 357.604 154.826Q354.564 152.964 350.688 152.964Q346.888 152.964 343.809 154.826Q340.731 156.688 338.946 159.88Q337.16 163.072 337.16 167.176Q337.16 171.204 338.946 174.472Q340.731 177.74 343.809 179.602Q346.888 181.464 350.688 181.464ZM404.372 188.304Q398.064 188.304 393.162 185.606Q388.26 182.908 385.486 178.158Q382.712 173.408 382.712 167.252Q382.712 161.02 385.334 156.27Q387.956 151.52 392.592 148.822Q397.228 146.124 403.231 146.124Q409.16 146.124 413.416 148.745Q417.672 151.368 419.914 155.966Q422.156 160.564 422.156 166.568Q422.156 168.012 421.168 168.962Q420.18 169.912 418.659 169.912H388.032V163.832H418.432L415.316 165.96Q415.24 162.16 413.796 159.158Q412.352 156.156 409.692 154.408Q407.032 152.66 403.231 152.66Q398.9 152.66 395.822 154.56Q392.744 156.46 391.148 159.766Q389.552 163.072 389.552 167.252Q389.552 171.432 391.452 174.7Q393.352 177.968 396.696 179.868Q400.04 181.768 404.372 181.768Q406.728 181.768 409.198 180.894Q411.668 180.02 413.188 178.88Q414.328 178.044 415.658 178.006Q416.988 177.968 417.976 178.804Q419.268 179.944 419.344 181.312Q419.42 182.68 418.128 183.668Q415.544 185.72 411.706 187.012Q407.868 188.304 404.372 188.304ZM446.964 188.304Q441.644 188.304 437.122 186.670Q432.6 185.036 430.092 182.528Q428.952 181.312 429.142 179.754Q429.332 178.196 430.624 177.208Q432.144 175.992 433.626 176.182Q435.108 176.372 436.172 177.512Q437.464 178.956 440.313 180.209Q443.164 181.464 446.66 181.464Q451.068 181.464 453.385 180.019Q455.704 178.576 455.78 176.296Q455.856 174.016 453.614 172.344Q451.372 170.672 445.444 169.608Q437.768 168.088 434.309 165.048Q430.852 162.008 430.852 157.6Q430.852 153.724 433.131 151.178Q435.412 148.632 438.984 147.378Q442.556 146.124 446.432 146.124Q451.448 146.124 455.323 147.72Q459.2 149.316 461.48 152.128Q462.544 153.344 462.467 154.673Q462.392 156.004 461.176 156.916Q459.96 157.752 458.288 157.448Q456.616 157.144 455.476 156.08Q453.576 154.256 451.372 153.572Q449.168 152.888 446.28 152.888Q442.936 152.888 440.618 154.028Q438.3 155.168 438.3 157.372Q438.3 158.74 439.022 159.841Q439.744 160.944 441.872 161.817Q444 162.692 448.104 163.528Q453.804 164.668 457.11 166.416Q460.416 168.164 461.86 170.482Q463.304 172.8 463.304 175.84Q463.304 179.336 461.442 182.148Q459.58 184.96 455.97 186.632Q452.36 188.304 446.964 188.304ZM499.552 188Q497.88 188 496.74 186.86Q495.6 185.72 495.6 184.048V132.596Q495.6 130.848 496.74 129.746Q497.88 128.644 499.552 128.644H533.904Q535.652 128.644 536.716 129.670Q537.78 130.696 537.78 132.368Q537.78 133.964 536.716 134.952Q535.652 135.94 533.904 135.94H503.504V154.408H525.316Q527.064 154.408 528.127 155.434Q529.192 156.46 529.192 158.056Q529.192 159.652 528.127 160.678Q527.064 161.704 525.316 161.704H503.504V180.704H533.904Q535.652 180.704 536.716 181.692Q537.78 182.68 537.78 184.276Q537.78 185.948 536.716 186.974Q535.652 188 533.904 188ZM566.688 188.304Q560.76 188.304 556.01 185.53Q551.26 182.756 548.486 177.968Q545.712 173.18 545.712 167.176Q545.712 161.172 548.258 156.422Q550.804 151.672 555.212 148.898Q559.62 146.124 565.168 146.124Q569.652 146.124 573.452 147.986Q577.252 149.848 579.836 153.04V132.52Q579.836 130.772 580.938 129.708Q582.04 128.644 583.712 128.644Q585.46 128.644 586.524 129.708Q587.588 130.772 587.588 132.52V167.176Q587.588 173.18 584.814 177.968Q582.04 182.756 577.328 185.53Q572.616 188.304 566.688 188.304ZM566.688 181.464Q570.564 181.464 573.604 179.602Q576.644 177.74 578.392 174.472Q580.14 171.204 580.14 167.176Q580.14 163.072 578.392 159.88Q576.644 156.688 573.604 154.826Q570.564 152.964 566.688 152.964Q562.888 152.964 559.81 154.826Q556.732 156.688 554.945 159.88Q553.16 163.072 553.16 167.176Q553.16 171.204 554.945 174.472Q556.732 177.74 559.81 179.602Q562.888 181.464 566.688 181.464ZM618.32 188.38Q613.076 188.38 608.934 186.137Q604.792 183.896 602.398 179.564Q600.004 175.232 600.004 168.924V150.228Q600.004 148.556 601.106 147.454Q602.208 146.352 603.88 146.352Q605.552 146.352 606.654 147.454Q607.756 148.556 607.756 150.228V168.924Q607.756 173.18 609.352 175.954Q610.948 178.728 613.684 180.058Q616.42 181.388 619.84 181.388Q623.108 181.388 625.654 180.096Q628.2 178.804 629.72 176.600Q631.24 174.396 631.24 171.66H636.028Q636.028 176.372 633.71 180.172Q631.392 183.972 627.402 186.176Q623.412 188.38 618.32 188.38ZM635.116 188Q633.444 188 632.342 186.898Q631.24 185.796 631.24 184.124V150.228Q631.24 148.480 632.342 147.416Q633.444 146.352 635.116 146.352Q636.864 146.352 637.928 147.416Q638.992 148.480 638.992 150.228V184.124Q638.992 185.796 637.928 186.898Q636.864 188 635.116 188ZM671.688 188.304Q665.608 188.304 660.858 185.53Q656.108 182.756 653.41 178.006Q650.712 173.256 650.712 167.252Q650.712 161.096 653.372 156.308Q656.032 151.52 660.668 148.822Q665.304 146.124 671.308 146.124Q675.792 146.124 679.516 147.834Q683.24 149.544 686.204 152.964Q687.268 154.18 686.963 155.472Q686.66 156.764 685.292 157.752Q684.228 158.512 682.935 158.245Q681.644 157.98 680.58 156.916Q676.856 152.964 671.308 152.964Q667.432 152.964 664.468 154.75Q661.504 156.536 659.832 159.728Q658.16 162.920 658.16 167.252Q658.16 171.356 659.87 174.548Q661.58 177.74 664.62 179.602Q667.66 181.464 671.688 181.464Q674.348 181.464 676.362 180.817Q678.376 180.172 680.048 178.804Q681.264 177.816 682.556 177.702Q683.848 177.588 684.836 178.424Q686.128 179.488 686.28 180.817Q686.432 182.148 685.368 183.212Q679.896 188.304 671.688 188.304ZM716.168 188.304Q710.619 188.304 706.223 185.543Q701.828 182.783 699.270 178.019Q696.712 173.256 696.712 167.273Q696.712 161.214 699.486 156.443Q702.26 151.672 707.001 148.898Q711.742 146.124 717.687 146.124Q723.632 146.124 728.336 148.898Q733.04 151.672 735.814 156.459Q738.588 161.248 738.588 167.252H735.624Q735.624 173.219 733.068 177.985Q730.512 182.750 726.124 185.527Q721.737 188.304 716.168 188.304ZM717.688 181.464Q721.564 181.464 724.604 179.602Q727.644 177.74 729.392 174.501Q731.14 171.262 731.14 167.239Q731.14 163.148 729.392 159.918Q727.644 156.688 724.605 154.826Q721.567 152.964 717.694 152.964Q713.888 152.964 710.81 154.826Q707.732 156.688 705.945 159.907Q704.16 163.127 704.16 167.238Q704.16 171.28 705.945 174.51Q707.732 177.74 710.805 179.602Q713.879 181.464 717.688 181.464ZM734.724 188.076Q733.04 188.076 731.938 186.974Q730.836 185.872 730.836 184.2V172.572L732.28 164.516L738.588 167.252V184.2Q738.588 185.872 737.498 186.974Q736.408 188.076 734.724 188.076ZM764.963 188Q761.164 188 758.124 186.062Q755.084 184.124 753.336 180.78Q751.588 177.436 751.588 173.256V137.004Q751.588 135.332 752.652 134.268Q753.716 133.204 755.388 133.204Q757.06 133.204 758.124 134.268Q759.188 135.332 759.188 137.004V173.256Q759.188 176.296 760.86 178.348Q762.532 180.4 764.963 180.4H767.548Q768.916 180.4 769.866 181.464Q770.816 182.528 770.816 184.2Q770.816 185.872 769.562 186.936Q768.308 188 766.332 188ZM748.092 154.484Q746.496 154.484 745.508 153.572Q744.52 152.66 744.52 151.292Q744.52 149.772 745.508 148.86Q746.496 147.948 748.092 147.948H765.648Q767.244 147.948 768.232 148.86Q769.22 149.772 769.22 151.292Q769.22 152.66 768.232 153.572Q767.244 154.484 765.648 154.484ZM784.476 188Q782.804 188 781.702 186.898Q780.6 185.796 780.6 184.124V150.304Q780.6 148.556 781.702 147.492Q782.804 146.428 784.476 146.428Q786.224 146.428 787.288 147.492Q788.352 148.556 788.352 150.304V184.124Q788.352 185.796 787.288 186.898Q786.224 188 784.476 188ZM784.476 139.664Q782.424 139.664 780.942 138.182Q779.46 136.7 779.46 134.648Q779.46 132.596 780.942 131.114Q782.424 129.632 784.476 129.632Q786.528 129.632 788.01 131.114Q789.492 132.596 789.492 134.648Q789.492 136.7 788.01 138.182Q786.528 139.664 784.476 139.664ZM821.688 188.304Q815.532 188.304 810.816 185.595Q806.101 182.887 803.406 178.147Q800.712 173.408 800.712 167.252Q800.712 161.02 803.406 156.280Q806.101 151.540 810.816 148.832Q815.532 146.124 821.65 146.124Q827.768 146.124 832.469 148.832Q837.171 151.540 839.879 156.280Q842.588 161.02 842.588 167.252Q842.588 173.408 839.928 178.158Q837.268 182.908 832.556 185.606Q827.844 188.304 821.688 188.304ZM821.688 181.464Q825.64 181.464 828.674 179.633Q831.709 177.803 833.424 174.617Q835.14 171.432 835.14 167.252Q835.14 163.072 833.424 159.849Q831.709 156.627 828.674 154.795Q825.64 152.964 821.688 152.964Q817.736 152.964 814.698 154.795Q811.660 156.627 809.910 159.849Q808.16 163.072 808.16 167.252Q808.16 171.432 809.910 174.617Q811.660 177.803 814.698 179.633Q817.736 181.464 821.688 181.464ZM888.952 188.076Q887.28 188.076 886.178 186.974Q885.076 185.872 885.076 184.2V165.504Q885.076 161.172 883.48 158.435Q881.884 155.7 879.186 154.37Q876.488 153.04 872.992 153.04Q869.8 153.04 867.215 154.332Q864.632 155.624 863.112 157.79Q861.592 159.956 861.592 162.768H856.804Q856.804 157.98 859.122 154.218Q861.44 150.456 865.468 148.252Q869.496 146.048 874.512 146.048Q879.756 146.048 883.897 148.290Q888.04 150.532 890.434 154.864Q892.828 159.196 892.828 165.504V184.2Q892.828 185.872 891.726 186.974Q890.624 188.076 888.952 188.076ZM857.716 188.076Q856.044 188.076 854.942 186.974Q853.84 185.872 853.84 184.2V150.304Q853.84 148.556 854.942 147.492Q856.044 146.428 857.716 146.428Q859.464 146.428 860.528 147.492Q861.592 148.556 861.592 150.304V184.2Q861.592 185.872 860.528 186.974Q859.464 188.076 857.716 188.076Z"/>
    <rect x="910" y="131" width="132" height="54" rx="27"/>
    <text x="939" y="168" fill="#1D232B" font-family="'Source Sans 3', sans-serif" font-size="34" font-weight="800" letter-spacing="0.08em">BTS</text>
  </g>
</svg>
